<svg width="45" height="46" viewBox="0 0 45 46" fill="none" xmlns="http://www.w3.org/2000/svg">
<g clip-path="url(#clip0_282_168)">
<path d="M22.5 46C34.9264 46 45 35.7025 45 23C45 10.2975 34.9264 0 22.5 0C10.0736 0 0 10.2975 0 23C0 35.7025 10.0736 46 22.5 46Z" fill="#5F33E1"/>
<path d="M34.3702 37.1894H10.63C10.4794 37.1894 10.3643 37.0626 10.3643 36.9177V9.09134C10.3643 8.9374 10.4883 8.81969 10.63 8.81969H34.3702C34.5208 8.81969 34.6359 8.94646 34.6359 9.09134V36.9177C34.6359 37.0626 34.5208 37.1894 34.3702 37.1894Z" fill="#CED5E0"/>
<path d="M10.3643 9.8702V36.0576C10.3643 36.6643 10.8426 37.1442 11.4272 37.1442H30.3839V33.8844C30.3839 33.2867 30.8623 32.7978 31.4469 32.7978H34.6359V9.8702C34.6359 9.26351 34.1576 8.78359 33.5729 8.78359H11.4272C10.8337 8.77453 10.3643 9.26351 10.3643 9.8702Z" fill="white"/>
<path d="M30.3838 37.1894L34.6358 32.8429H31.4468C30.8621 32.8429 30.3838 33.3319 30.3838 33.9295V37.1894Z" fill="#E6E9EE"/>
<path d="M12.88 10.0331H11.4539V10.7122H12.88V10.0331Z" fill="#CED5E0"/>
<path d="M12.6142 7.45236H11.7195V10.3772H12.6142V7.45236Z" fill="#324A5E"/>
<path d="M15.8297 10.0331H14.4036V10.7122H15.8297V10.0331Z" fill="#CED5E0"/>
<path d="M15.5639 7.45236H14.6692V10.3772H15.5639V7.45236Z" fill="#324A5E"/>
<path d="M18.7885 10.0331H17.3623V10.7122H18.7885V10.0331Z" fill="#CED5E0"/>
<path d="M18.5138 7.45236H17.6191V10.3772H18.5138V7.45236Z" fill="#324A5E"/>
<path d="M21.7382 10.0331H20.312V10.7122H21.7382V10.0331Z" fill="#CED5E0"/>
<path d="M21.4723 7.45236H20.5776V10.3772H21.4723V7.45236Z" fill="#324A5E"/>
<path d="M24.6879 10.0331H23.2617V10.7122H24.6879V10.0331Z" fill="#CED5E0"/>
<path d="M24.4223 7.45236H23.5276V10.3772H24.4223V7.45236Z" fill="#324A5E"/>
<path d="M27.6466 10.0331H26.2205V10.7122H27.6466V10.0331Z" fill="#CED5E0"/>
<path d="M27.372 7.45236H26.4773V10.3772H27.372V7.45236Z" fill="#324A5E"/>
<path d="M30.5963 10.0331H29.1702V10.7122H30.5963V10.0331Z" fill="#CED5E0"/>
<path d="M30.3307 7.45236H29.436V10.3772H30.3307V7.45236Z" fill="#324A5E"/>
<path d="M33.5463 10.0331H32.1201V10.7122H33.5463V10.0331Z" fill="#CED5E0"/>
<path d="M33.2804 7.45236H32.3857V10.3772H33.2804V7.45236Z" fill="#324A5E"/>
<path d="M14.8843 18.0638C14.8843 17.0546 15.7342 16.2365 16.7827 16.2365H28.1733C29.2218 16.2365 30.0718 17.0546 30.0718 18.0638V23.5635C29.681 23.3227 29.2563 23.1282 28.8062 22.9882V18.0638C28.8062 17.7274 28.5228 17.4547 28.1733 17.4547H16.7827C16.4332 17.4547 16.1499 17.7274 16.1499 18.0638V29.0278C16.1499 29.3642 16.4332 29.6369 16.7827 29.6369H21.8988C22.0442 30.0702 22.2462 30.4789 22.4964 30.8551H16.7827C15.7342 30.8551 14.8843 30.0369 14.8843 29.0278V18.0638Z" fill="#6E6A7C"/>
<path d="M21.4489 20.0695C21.696 20.3074 21.696 20.6931 21.4489 20.9309L19.7614 22.5552C19.5143 22.7931 19.1136 22.7931 18.8665 22.5552L18.0227 21.7431C17.7756 21.5052 17.7756 21.1195 18.0227 20.8817C18.2699 20.6438 18.6706 20.6438 18.9177 20.8817L19.314 21.2631L20.554 20.0695C20.8012 19.8316 21.2018 19.8316 21.4489 20.0695Z" fill="#6E6A7C"/>
<path d="M21.4489 24.5363C21.696 24.7742 21.696 25.1598 21.4489 25.3977L19.7614 27.022C19.5143 27.2599 19.1136 27.2599 18.8665 27.022L18.0227 26.2098C17.7756 25.972 17.7756 25.5864 18.0227 25.3485C18.2699 25.1106 18.6706 25.1106 18.9177 25.3485L19.314 25.7299L20.554 24.5363C20.8012 24.2985 21.2018 24.2985 21.4489 24.5363Z" fill="#6E6A7C"/>
<path d="M26.603 23.9356C28.467 23.9356 29.978 25.5064 29.978 27.4441C29.978 29.3818 28.467 30.9525 26.603 30.9525C24.739 30.9525 23.228 29.3818 23.228 27.4441C23.228 25.5064 24.739 23.9356 26.603 23.9356ZM26.9105 29.36L26.9102 27.763H28.4458C28.6153 27.763 28.7526 27.6203 28.7526 27.4441C28.7526 27.2679 28.6153 27.1251 28.4458 27.1251H26.9102L26.9098 25.5299C26.9098 25.3537 26.7725 25.211 26.603 25.211C26.4336 25.211 26.2962 25.3537 26.2962 25.5299L26.2965 27.1251H24.7597C24.5903 27.1251 24.4529 27.2679 24.4529 27.4441C24.4529 27.6203 24.5903 27.763 24.7597 27.763H26.2966L26.2969 29.36C26.2969 29.5362 26.4343 29.679 26.6037 29.679C26.7732 29.679 26.9105 29.5362 26.9105 29.36Z" fill="#212121"/>
<path d="M23.5327 20.7032C23.1832 20.7032 22.8999 20.976 22.8999 21.3124C22.8999 21.6488 23.1832 21.9215 23.5327 21.9215H26.4858C26.8353 21.9215 27.1187 21.6488 27.1187 21.3124C27.1187 20.976 26.8353 20.7032 26.4858 20.7032H23.5327Z" fill="#6E6A7C"/>
</g>
<defs>
<clipPath id="clip0_282_168">
<rect width="45" height="46" fill="white"/>
</clipPath>
</defs>
</svg>
